<svg width="2624" height="2624" viewBox="0 0 2624 2624" fill="none" xmlns="http://www.w3.org/2000/svg">
<path fill-rule="evenodd" clip-rule="evenodd" d="M1247.72 2472.25L1250.8 2415.84L1254.36 2350.43C1273.43 2351.47 1292.65 2352 1312 2352C1331.35 2352 1350.57 2351.47 1369.64 2350.43L1373.2 2415.84L1376.28 2472.25C1648.76 2457.4 1896.26 2348.66 2086.98 2177.84L2049.28 2135.75L2005.58 2086.96C2034.18 2061.35 2061.35 2034.18 2086.96 2005.58L2135.75 2049.28L2177.84 2086.98C2348.66 1896.26 2457.4 1648.76 2472.25 1376.28L2415.84 1373.2L2350.43 1369.64C2351.47 1350.57 2352 1331.35 2352 1312C2352 1292.65 2351.47 1273.43 2350.43 1254.36L2415.84 1250.8L2472.25 1247.72C2457.4 975.24 2348.66 727.744 2177.84 537.02L2135.75 574.716L2086.96 618.417C2061.35 589.822 2034.18 562.651 2005.58 537.038L2049.28 488.248L2086.98 446.161C1896.26 275.336 1648.76 166.603 1376.28 151.748L1373.2 208.164L1369.64 273.567C1350.57 272.527 1331.35 272 1312 272C1292.65 272 1273.43 272.527 1254.36 273.567L1250.8 208.164L1247.72 151.748C975.24 166.603 727.744 275.336 537.021 446.162L574.716 488.248L618.417 537.038C589.822 562.651 562.651 589.822 537.038 618.417L488.248 574.716L446.161 537.021C275.336 727.744 166.603 975.24 151.748 1247.72L208.164 1250.8L273.567 1254.36C272.527 1273.43 272 1292.65 272 1312C272 1331.35 272.527 1350.57 273.567 1369.64L208.164 1373.2L151.748 1376.28C166.603 1648.76 275.336 1896.26 446.162 2086.98L488.248 2049.28L537.038 2005.58C562.651 2034.18 589.822 2061.35 618.417 2086.96L574.716 2135.75L537.021 2177.84C727.744 2348.66 975.24 2457.4 1247.72 2472.25ZM2624 1312C2624 2036.6 2036.6 2624 1312 2624C587.402 2624 0 2036.6 0 1312C0 587.402 587.402 0 1312 0C2036.6 0 2624 587.402 2624 1312Z" fill="black"/>
<path fill-rule="evenodd" clip-rule="evenodd" d="M544.187 1359.51L558.06 1316.89L572.163 1297.58C584.009 1281.36 606.069 1258.94 620.896 1243.88C640.412 1224.05 666.157 1198.5 695.769 1169.46C755.116 1111.25 831.713 1037.3 908.851 963.487C1059.2 819.604 1222.75 665.435 1256.65 638.102L1256.7 638.067L1256.74 638.032C1257.98 637.031 1259.3 635.967 1260.68 634.848C1282.68 617.022 1321.91 585.247 1371.15 570.859C1432.74 552.866 1487.32 566.395 1523.04 576.754L1525.38 577.431L1576.46 594.056L1578.74 594.883C1613.77 607.554 1665.85 628.767 1705.03 679.589C1736.34 720.2 1749.33 768.954 1756.61 796.282C1757.07 798.004 1757.5 799.641 1757.92 801.186L1757.93 801.227C1769.47 844.071 1812.47 1073.36 1850.02 1282.42C1869.27 1389.62 1887.82 1495.67 1901.2 1576.39C1907.87 1616.61 1913.39 1651.37 1917.1 1677.12C1918.92 1689.78 1920.5 1701.67 1921.54 1711.46C1922.03 1716.13 1922.62 1722.33 1922.92 1728.76C1923.06 1731.85 1923.24 1737.14 1923.03 1743.42C1923.02 1743.51 1923.02 1743.62 1923.02 1743.76C1922.92 1747.03 1922.4 1765.18 1915.57 1786.17C1895.48 1847.9 1859.15 1895.62 1801.74 1939.78L1801.72 1939.8L1801.69 1939.81C1763.69 1969.02 1709.18 1995.16 1646.23 1994.4C1573.37 1993.52 1501.41 1955.2 1463.8 1878.92L1463.75 1878.8C1456.74 1864.57 1452.35 1849.72 1450.99 1845.13C1450.92 1844.91 1450.87 1844.72 1450.82 1844.55C1448.52 1836.82 1446.12 1827.99 1443.76 1818.92C1438.99 1800.6 1433.21 1776.85 1426.79 1749.9C1419.38 1718.8 1410.68 1681.5 1401.25 1641.08C1394.42 1611.82 1387.21 1580.93 1379.83 1549.57C1359.9 1464.82 1338.69 1376.44 1318.73 1299.09C1257.06 1349.87 1187.9 1408.84 1121.9 1465.62C1097.48 1486.63 1073.47 1507.36 1050.72 1527C1019.31 1554.11 990.318 1579.14 966.025 1599.93C944.973 1617.93 926.315 1633.73 911.678 1645.73C904.43 1651.67 897.293 1657.41 890.89 1662.3C890.748 1662.41 890.587 1662.53 890.408 1662.67C886.606 1665.58 874.312 1675 860.271 1682.38L860.16 1682.44C784.857 1721.97 704.129 1710.59 644.709 1668.42C593.366 1631.98 564.688 1578.76 551.16 1532.78L551.141 1532.72C534.339 1475.51 529.429 1421.57 542.777 1365.44L544.187 1359.51ZM1274.41 1141.8C1274.42 1141.79 1274.43 1141.79 1274.43 1141.78C1275.44 1140.97 1276.45 1140.17 1277.45 1139.37C1279.47 1137.75 1281.49 1136.14 1283.49 1134.55C1311.98 1111.85 1338.06 1091.78 1360.4 1075.64C1365.02 1072.16 1370.42 1069.84 1376.14 1068.89C1381.86 1067.94 1387.72 1068.39 1393.24 1070.18C1398.75 1071.98 1403.76 1075.07 1407.82 1079.2C1411.88 1083.34 1414.89 1088.39 1416.58 1093.92C1425.13 1120.12 1434.4 1151.7 1444.08 1186.82C1444.76 1189.28 1445.44 1191.77 1446.12 1194.27C1446.46 1195.5 1446.8 1196.75 1447.14 1197.99C1447.14 1198 1447.14 1198.01 1447.15 1198.02C1480.37 1320.08 1517.9 1480.9 1547.47 1607.61C1572.97 1716.9 1592.55 1800.82 1598.34 1812.58C1620.14 1856.8 1671.78 1850.48 1710.28 1820.88C1748.14 1791.77 1763.79 1767.83 1772.93 1739.75C1779.16 1720.63 1631.85 909.87 1613.09 840.247C1595.05 773.336 1587.98 757.736 1527.72 735.938L1481.26 720.818C1419.72 702.97 1404.84 711.375 1350.8 754.874C1295.86 799.171 722.928 1345.48 693.294 1386.05L688.708 1400.14C682.903 1424.55 683.536 1451.21 695.061 1490.44C708.769 1537.03 746.796 1572.54 790.445 1549.62C802.052 1543.52 867.273 1487.21 952.22 1413.87C1050.71 1328.84 1175.71 1220.91 1274.41 1141.8Z" fill="black"/>
</svg>
