<svg width="2048" height="2048" viewBox="0 0 2048 2048" fill="none" xmlns="http://www.w3.org/2000/svg">
<g clip-path="url(#clip0_401_593)">
<path fill-rule="evenodd" clip-rule="evenodd" d="M1024 2048C1589.54 2048 2048 1589.54 2048 1024C2048 458.46 1589.54 0 1024 0C458.46 0 0 458.46 0 1024C0 1589.54 458.46 2048 1024 2048Z" fill="#1E90FF"/>
<path d="M394.449 1134.82C388.661 1159.16 389.293 1185.74 400.782 1224.85C414.45 1271.31 452.364 1306.7 495.883 1283.86C525.227 1268.43 898.262 931.152 1064.14 811.285C1068.75 807.815 1074.14 805.508 1079.84 804.56C1085.54 803.613 1091.39 804.053 1096.88 805.843C1102.38 807.632 1107.37 810.719 1111.42 814.84C1115.47 818.962 1118.47 823.996 1120.15 829.515C1183.69 1024.06 1286.74 1516.29 1301.37 1546.04C1323.11 1590.12 1374.59 1583.82 1412.99 1554.31C1450.72 1525.28 1466.33 1501.42 1475.45 1473.42C1481.65 1454.36 1334.79 646.01 1316.08 576.593C1298.09 509.881 1291.04 494.328 1230.96 472.595L1184.65 457.52C1123.29 439.725 1108.45 448.105 1054.57 491.475C999.797 535.639 428.567 1080.32 399.021 1120.78L394.449 1134.82Z" fill="white"/>
<path fill-rule="evenodd" clip-rule="evenodd" d="M1024 1976.11C1549.84 1976.11 1976.11 1549.84 1976.11 1024C1976.11 498.162 1549.84 71.8867 1024 71.8867C498.162 71.8867 71.8867 498.162 71.8867 1024C71.8867 1549.84 498.162 1976.11 1024 1976.11ZM1004.53 1825.23L1002.31 1918.5C771.579 1913.01 562.47 1820.18 406.782 1671.79L471.151 1604.25C461.798 1595.34 452.66 1586.2 443.746 1576.85L376.208 1641.22C227.823 1485.53 134.989 1276.42 129.501 1045.69L222.774 1043.47C222.62 1037 222.542 1030.51 222.542 1024C222.542 1017.49 222.62 1011 222.774 1004.53L129.501 1002.31C134.989 771.579 227.823 562.47 376.208 406.782L443.746 471.151C452.66 461.798 461.798 452.66 471.152 443.746L406.782 376.208C562.47 227.823 771.579 134.989 1002.31 129.501L1004.53 222.774C1011 222.62 1017.49 222.542 1024 222.542C1030.51 222.542 1037 222.62 1043.47 222.774L1045.69 129.501C1276.42 134.989 1485.53 227.823 1641.22 376.208L1576.85 443.746C1586.2 452.66 1595.34 461.798 1604.26 471.152L1671.79 406.782C1820.18 562.47 1913.01 771.579 1918.5 1002.31L1825.23 1004.53C1825.38 1011 1825.46 1017.49 1825.46 1024C1825.46 1030.51 1825.38 1037 1825.23 1043.47L1918.5 1045.69C1913.01 1276.42 1820.18 1485.53 1671.79 1641.22L1604.25 1576.85C1595.34 1586.2 1586.2 1595.34 1576.85 1604.26L1641.22 1671.79C1485.53 1820.18 1276.42 1913.01 1045.69 1918.5L1043.47 1825.23C1037 1825.38 1030.51 1825.46 1024 1825.46C1017.49 1825.46 1011 1825.38 1004.53 1825.23Z" fill="white"/>
</g>
<defs>
<clipPath id="clip0_401_593">
<rect width="2048" height="2048" fill="white"/>
</clipPath>
</defs>
</svg>
