<svg width="2774" height="2774" viewBox="0 0 2774 2774" fill="none" xmlns="http://www.w3.org/2000/svg">
<path d="M2774 1387C2774 2153.02 2153.02 2774 1387 2774C620.981 2774 0 2153.02 0 1387C0 620.981 620.981 0 1387 0C2153.02 0 2774 620.981 2774 1387Z" fill="#499DE9"/>
<path d="M2699 1387C2699 2111.6 2111.6 2699 1387 2699C662.402 2699 75 2111.6 75 1387C75 662.402 662.402 75 1387 75C2111.6 75 2699 662.402 2699 1387Z" fill="#499DE9"/>
<path fill-rule="evenodd" clip-rule="evenodd" d="M1387 2549C2028.75 2549 2549 2028.75 2549 1387C2549 745.245 2028.75 225 1387 225C745.245 225 225 745.245 225 1387C225 2028.75 745.245 2549 1387 2549ZM1387 2699C2111.6 2699 2699 2111.6 2699 1387C2699 662.402 2111.6 75 1387 75C662.402 75 75 662.402 75 1387C75 2111.6 662.402 2699 1387 2699Z" fill="white"/>
<path fill-rule="evenodd" clip-rule="evenodd" d="M2556.24 1451.77L2425.43 1444.64C2426.47 1425.57 2427 1406.35 2427 1387C2427 1367.65 2426.47 1348.43 2425.43 1329.36L2556.24 1322.23C2557.41 1343.67 2558 1365.27 2558 1387C2558 1408.73 2557.41 1430.33 2556.24 1451.77ZM2259.54 606.016L2161.96 693.417C2136.35 664.822 2109.18 637.65 2080.58 612.038L2167.98 514.457C2200.16 543.274 2230.73 573.843 2259.54 606.016ZM1451.77 217.761L1444.64 348.567C1425.57 347.527 1406.35 347 1387 347C1367.65 347 1348.43 347.527 1329.36 348.567L1322.23 217.761C1343.67 216.592 1365.27 216 1387 216C1408.73 216 1430.33 216.592 1451.77 217.761ZM606.016 514.457L693.417 612.038C664.822 637.651 637.65 664.822 612.038 693.417L514.457 606.016C543.274 573.843 573.843 543.274 606.016 514.457ZM217.761 1322.23C216.592 1343.67 216 1365.27 216 1387C216 1408.73 216.592 1430.33 217.761 1451.77L348.567 1444.64C347.527 1425.57 347 1406.35 347 1387C347 1367.65 347.527 1348.43 348.567 1329.36L217.761 1322.23ZM514.457 2167.98L612.038 2080.58C637.651 2109.18 664.822 2136.35 693.417 2161.96L606.016 2259.54C573.843 2230.73 543.274 2200.16 514.457 2167.98ZM1322.23 2556.24L1329.36 2425.43C1348.43 2426.47 1367.65 2427 1387 2427C1406.35 2427 1425.57 2426.47 1444.64 2425.43L1451.77 2556.24C1430.33 2557.41 1408.73 2558 1387 2558C1365.27 2558 1343.67 2557.41 1322.23 2556.24ZM2167.98 2259.54L2080.58 2161.96C2109.18 2136.35 2136.35 2109.18 2161.96 2080.58L2259.54 2167.98C2230.73 2200.16 2200.16 2230.73 2167.98 2259.54Z" fill="white"/>
<path fill-rule="evenodd" clip-rule="evenodd" d="M619.186 1434.51L633.059 1391.89L647.162 1372.58C659.008 1356.36 681.068 1333.94 695.895 1318.88C715.411 1299.05 741.156 1273.5 770.768 1244.46C830.115 1186.25 906.712 1112.3 983.85 1038.49C1134.2 894.604 1297.75 740.435 1331.65 713.102L1331.7 713.067L1331.74 713.032C1332.98 712.031 1334.3 710.967 1335.68 709.848C1357.68 692.022 1396.9 660.247 1446.15 645.859C1507.74 627.866 1562.32 641.395 1598.04 651.754L1600.38 652.431L1651.45 669.056L1653.74 669.883C1688.77 682.554 1740.85 703.767 1780.03 754.589C1811.34 795.2 1824.33 843.954 1831.61 871.282C1832.07 873.004 1832.5 874.641 1832.92 876.186L1832.93 876.227C1844.47 919.071 1887.47 1148.36 1925.02 1357.42C1944.27 1464.62 1962.82 1570.67 1976.2 1651.39C1982.87 1691.61 1988.39 1726.37 1992.1 1752.12C1993.91 1764.78 1995.5 1776.67 1996.54 1786.46C1997.03 1791.13 1997.62 1797.33 1997.92 1803.76C1998.06 1806.85 1998.24 1812.14 1998.03 1818.42C1998.02 1818.51 1998.02 1818.62 1998.02 1818.76C1997.92 1822.03 1997.4 1840.18 1990.57 1861.17C1970.48 1922.9 1934.15 1970.62 1876.74 2014.78L1876.71 2014.8L1876.69 2014.81C1838.69 2044.02 1784.18 2070.16 1721.23 2069.4C1648.37 2068.52 1576.41 2030.2 1538.8 1953.92L1538.75 1953.8C1531.74 1939.57 1527.35 1924.72 1525.99 1920.13C1525.92 1919.91 1525.87 1919.72 1525.81 1919.55C1523.52 1911.82 1521.12 1902.99 1518.76 1893.92C1513.99 1875.6 1508.21 1851.85 1501.79 1824.9C1494.38 1793.8 1485.68 1756.5 1476.24 1716.08C1469.42 1686.82 1462.21 1655.93 1454.83 1624.57C1434.9 1539.82 1413.69 1451.44 1393.73 1374.09C1332.06 1424.87 1262.9 1483.84 1196.9 1540.62C1172.48 1561.63 1148.47 1582.36 1125.72 1602C1094.31 1629.11 1065.32 1654.14 1041.02 1674.93C1019.97 1692.93 1001.31 1708.73 986.677 1720.73C979.429 1726.67 972.292 1732.41 965.889 1737.3C965.747 1737.41 965.587 1737.53 965.407 1737.67C961.605 1740.58 949.311 1750 935.27 1757.38L935.159 1757.44C859.856 1796.97 779.128 1785.59 719.708 1743.42C668.365 1706.98 639.687 1653.76 626.159 1607.78L626.14 1607.72C609.338 1550.51 604.428 1496.57 617.776 1440.44L619.186 1434.51ZM1349.41 1216.8C1349.42 1216.79 1349.43 1216.79 1349.43 1216.78C1350.44 1215.97 1351.45 1215.17 1352.45 1214.37C1354.47 1212.75 1356.49 1211.14 1358.49 1209.55C1386.98 1186.85 1413.06 1166.78 1435.4 1150.64C1440.02 1147.16 1445.42 1144.84 1451.14 1143.89C1456.86 1142.94 1462.72 1143.39 1468.24 1145.18C1473.75 1146.98 1478.75 1150.07 1482.82 1154.2C1486.88 1158.34 1489.88 1163.39 1491.57 1168.92C1500.13 1195.12 1509.4 1226.7 1519.08 1261.82C1519.76 1264.28 1520.44 1266.77 1521.12 1269.27C1521.46 1270.5 1521.8 1271.75 1522.14 1272.99C1522.14 1273 1522.14 1273.01 1522.14 1273.02C1555.37 1395.08 1592.9 1555.9 1622.46 1682.61C1647.97 1791.9 1667.55 1875.82 1673.34 1887.58C1695.14 1931.8 1746.78 1925.48 1785.28 1895.88C1823.14 1866.77 1838.79 1842.83 1847.93 1814.75C1854.16 1795.63 1706.85 984.87 1688.09 915.247C1670.05 848.336 1662.98 832.736 1602.72 810.938L1556.26 795.818C1494.72 777.97 1479.84 786.375 1425.8 829.874C1370.86 874.171 797.927 1420.48 768.293 1461.05L763.707 1475.14C757.902 1499.55 758.536 1526.21 770.06 1565.44C783.768 1612.03 821.795 1647.54 865.444 1624.62C877.051 1618.52 942.272 1562.21 1027.22 1488.87C1125.71 1403.84 1250.71 1295.91 1349.41 1216.8Z" fill="white"/>
</svg>
