<svg width="1042" height="555" viewBox="0 0 1042 555" fill="none" xmlns="http://www.w3.org/2000/svg">
<g clip-path="url(#clip0_404_716)">
<path d="M961.469 438.175C960.309 440.675 959.153 443.142 957.999 445.575C956.199 449.355 954.423 453.062 952.669 456.695C951.889 458.305 951.109 459.885 950.349 461.465C941.749 479.035 933.719 494.575 926.899 507.355C920.711 518.935 911.522 528.638 900.296 535.446C889.069 542.255 876.218 545.919 863.089 546.055L711.439 547.705H709.839L696.839 547.845L685.719 547.965L651.619 548.335H650.239L632.879 548.525H632.349L525.349 549.685L429.839 550.685L418.729 550.805L349.729 551.555H349.649L304.899 552.035H304.419L162.919 553.565L120.589 554.025C116.985 554.066 113.381 553.886 109.799 553.485V553.485C108.579 553.345 107.359 553.185 106.149 552.995C86.4072 549.948 68.3054 540.228 54.8593 525.455C36.6493 505.425 23.3992 482.055 14.4992 456.695C13.2126 453.035 12.0126 449.328 10.8992 445.575C-19.9108 341.425 17.6493 207.055 85.2493 117.135C88.0826 113.375 90.9626 109.708 93.8893 106.135L93.9592 106.055C114.749 80.5351 138.059 59.2151 162.889 44.0551C206.889 17.1451 255.639 9.56509 303.589 32.1551C344.159 51.2751 382.039 60.2651 418.759 62.7051C422.469 62.9451 426.179 63.1251 429.869 63.2351C514.099 65.8851 593.039 35.5351 685.739 15.9451C689.429 15.1651 693.129 14.3951 696.859 13.6651C762.989 0.505089 836.349 -6.43491 923.589 8.15509C932.653 9.63575 941.596 11.7747 950.349 14.5551C954.196 15.7951 957.903 17.1284 961.469 18.5551C1003.11 35.4951 1025.82 66.7951 1035.47 106.015C1036.38 109.655 1037.17 113.358 1037.84 117.125C1054.95 211.465 1004.84 345.285 961.469 438.175Z" fill="#F2F2F2"/>
<path opacity="0.1" d="M497.01 445.575C496.607 449.315 495.982 453.028 495.14 456.695H588.84V445.575H497.01ZM418.76 508.385L429.87 508.295V480.825C426.06 480.655 422.35 480.485 418.76 480.305V508.385ZM185.84 445.575V456.695H384.34V445.575H185.84ZM1035.52 106.055H961.52V18.5648C957.953 17.1181 954.246 15.7848 950.4 14.5648V106.055H696.86V13.6348C693.13 14.3648 689.43 15.1348 685.74 15.9148V106.055H429.87V63.2048C426.18 63.0948 422.47 62.9148 418.76 62.6748V106.055H162.89V44.0548C138.06 59.2148 114.75 80.5348 93.9596 106.055H93.8897V106.135C90.9563 109.735 88.0763 113.401 85.2497 117.135H93.8897V445.575H10.8896C11.9963 449.328 13.1963 453.035 14.4896 456.695H93.8796V550.315C97.8741 551.536 101.951 552.469 106.08 553.105C107.29 553.295 108.51 553.455 109.73 553.595C113.312 553.996 116.915 554.176 120.52 554.135L162.85 553.675V456.675H418.76V550.885L429.87 550.765V456.695H685.74V548.055L696.86 547.935V456.695H950.35V461.465C951.11 459.885 951.89 458.305 952.67 456.695C954.423 453.061 956.2 449.355 958 445.575C959.153 443.148 960.31 440.681 961.47 438.175V117.175H1037.89C1037.22 113.381 1036.43 109.675 1035.52 106.055ZM162.89 445.575V117.135H418.76V445.575H162.89ZM429.89 445.575V117.135H685.74V445.575H429.89ZM950.37 445.575H696.86V117.135H950.35L950.37 445.575Z" fill="black"/>
<path d="M863.079 533.615V546.615L711.159 548.015L709.539 548.045L651.799 548.575L650.419 548.595L632.869 548.745H632.349L525.369 549.735L349.759 551.365H349.609L304.959 551.785L304.479 551.795L106.079 553.615V538.615L152.729 510.615L246.329 509.835L248.329 509.825L248.989 509.815L250.989 509.785L295.929 509.415L297.939 509.405L298.579 509.395L300.579 509.385L314.989 509.265L315.369 509.255L350.919 508.955H351.209L628.609 506.615L635.399 506.565H636.079L641.259 506.515L678.909 506.205L680.909 506.175L682.759 506.155H683.719L695.429 506.065L697.749 506.035L700.859 506.015L710.609 505.925L726.079 505.795L728.079 505.775L731.559 505.755H732.209L806.919 505.115L863.079 533.615Z" fill="#65617D"/>
<path opacity="0.2" d="M863.079 533.615V546.615L711.159 548.015L709.539 548.045L651.799 548.575L650.419 548.595L632.869 548.745H632.349L525.369 549.735L349.759 551.365H349.609L304.959 551.785L304.479 551.795L106.079 553.615V538.615L152.729 510.615L246.329 509.835L248.329 509.825L248.989 509.815L250.989 509.785L295.929 509.415L297.939 509.405L298.579 509.395L300.579 509.385L314.989 509.265L315.369 509.255L350.919 508.955H351.209L628.609 506.615L635.399 506.565H636.079L641.259 506.515L678.909 506.205L680.909 506.175L682.759 506.155H683.719L695.429 506.065L697.749 506.035L700.859 506.015L710.609 505.925L726.079 505.795L728.079 505.775L731.559 505.755H732.209L806.919 505.115L863.079 533.615Z" fill="black"/>
<path d="M296.089 483.625V508.115C296.09 509.275 295.761 510.411 295.141 511.392C294.522 512.373 293.637 513.157 292.589 513.655C291.809 514.033 290.956 514.238 290.089 514.255L255.189 514.995C254.257 515.017 253.332 514.822 252.489 514.425C251.423 513.936 250.519 513.151 249.886 512.164C249.254 511.176 248.918 510.028 248.919 508.855V483.625H296.089Z" fill="#3F3D56"/>
<path opacity="0.1" d="M296.089 483.625V508.115C296.09 509.275 295.761 510.411 295.141 511.392C294.522 512.373 293.637 513.157 292.589 513.655C291.809 514.033 290.956 514.238 290.089 514.255L255.189 514.995C254.257 515.017 253.332 514.822 252.489 514.425C251.423 513.936 250.519 513.151 249.886 512.164C249.254 511.176 248.918 510.028 248.919 508.855V483.625H296.089Z" fill="black"/>
<path d="M298.089 483.625V508.115C298.09 509.275 297.761 510.411 297.141 511.392C296.522 512.373 295.637 513.157 294.589 513.655C293.809 514.033 292.956 514.238 292.089 514.255L257.189 514.995C256.257 515.017 255.332 514.822 254.489 514.425C253.423 513.936 252.519 513.151 251.886 512.164C251.254 511.176 250.918 510.028 250.919 508.855V483.625H298.089Z" fill="#3F3D56"/>
<path d="M728.079 483.615H680.909V515.115H728.079V483.615Z" fill="#3F3D56"/>
<path opacity="0.1" d="M728.079 483.615H680.909V515.115H728.079V483.615Z" fill="black"/>
<path d="M726.079 483.615H678.909V515.115H726.079V483.615Z" fill="#3F3D56"/>
<path opacity="0.1" d="M298.079 483.615V488.585L250.909 489.845V483.615H298.079Z" fill="black"/>
<path d="M381.339 312.325V480.525C381.327 481.552 380.92 482.534 380.204 483.27C379.487 484.005 378.515 484.437 377.489 484.475L185.839 489.575H185.789C184.745 489.562 183.748 489.142 183.01 488.404C182.272 487.666 181.852 486.669 181.839 485.625V312.325C181.852 311.281 182.272 310.284 183.01 309.546C183.748 308.808 184.745 308.388 185.789 308.375H377.389C378.432 308.388 379.43 308.808 380.168 309.546C380.906 310.284 381.326 311.281 381.339 312.325V312.325Z" fill="#65617D"/>
<path opacity="0.1" d="M185.839 308.375V489.575H185.789C184.745 489.562 183.748 489.142 183.01 488.404C182.272 487.666 181.852 486.669 181.839 485.625V312.325C181.852 311.281 182.272 310.284 183.01 309.546C183.748 308.808 184.745 308.388 185.789 308.375H185.839Z" fill="black"/>
<path d="M194.579 319.115H372.079V467.365L194.579 471.365V319.115Z" fill="#39374D"/>
<path opacity="0.1" d="M726.079 483.615V490.025L678.909 488.765V483.615H726.079Z" fill="black"/>
<path d="M788.339 312.325V485.625C788.326 486.677 787.898 487.682 787.15 488.421C786.401 489.161 785.391 489.575 784.339 489.575V489.575L592.649 484.475C591.623 484.437 590.651 484.005 589.934 483.27C589.217 482.534 588.811 481.552 588.799 480.525V312.325C588.812 311.281 589.232 310.284 589.97 309.546C590.708 308.808 591.705 308.388 592.749 308.375H784.349C785.399 308.378 786.407 308.793 787.153 309.532C787.9 310.271 788.326 311.275 788.339 312.325V312.325Z" fill="#65617D"/>
<path opacity="0.1" d="M788.339 312.325V485.625C788.326 486.677 787.899 487.682 787.15 488.421C786.401 489.161 785.391 489.575 784.339 489.575V489.575V308.375C785.391 308.375 786.401 308.789 787.15 309.529C787.899 310.268 788.326 311.273 788.339 312.325Z" fill="black"/>
<path d="M775.579 319.115H598.079V467.365L775.579 471.365V319.115Z" fill="#39374D"/>
<path d="M583.839 312.325V480.525C583.827 481.552 583.42 482.534 582.704 483.27C581.987 484.005 581.015 484.437 579.989 484.475L388.339 489.575C387.287 489.575 386.277 489.161 385.528 488.421C384.779 487.682 384.352 486.677 384.339 485.625V312.325C384.352 311.281 384.772 310.284 385.51 309.546C386.248 308.808 387.245 308.388 388.289 308.375H579.889C580.932 308.388 581.93 308.808 582.668 309.546C583.406 310.284 583.826 311.281 583.839 312.325V312.325Z" fill="#65617D"/>
<path d="M397.079 319.115H574.579V467.365L397.079 471.365V319.115Z" fill="#4267B2"/>
<path opacity="0.1" d="M863.079 533.615V546.615L711.159 548.015L709.539 548.045L651.799 548.575L650.419 548.595L632.869 548.745H632.349L525.369 549.735L349.759 551.365H349.609L304.959 551.785L304.479 551.795L106.079 553.615V538.615L308.589 537.285H309.069L350.059 537.005H350.249L633.329 535.135H633.619L633.789 535.125H634.259L639.049 535.095H640.509L714.999 534.595L719.399 534.575L720.379 534.565L863.079 533.615Z" fill="black"/>
<path d="M487.249 349.445C515.598 349.445 538.579 326.464 538.579 298.115C538.579 269.766 515.598 246.785 487.249 246.785C458.9 246.785 435.919 269.766 435.919 298.115C435.919 326.464 458.9 349.445 487.249 349.445Z" fill="#FBBEBE"/>
<path d="M538.59 377.126C538.59 377.126 439.09 389.126 448.59 377.126C452.03 372.786 452.98 359.926 452.79 345.276C452.73 340.826 452.57 336.216 452.34 331.626C451.24 309.626 448.59 288.126 448.59 288.126C448.59 288.126 535.59 247.126 525.59 279.626C521.59 292.756 522.9 311.196 525.94 328.506C526.83 333.556 527.86 338.506 528.94 343.206C531.575 354.67 534.796 365.991 538.59 377.126V377.126Z" fill="#FBBEBE"/>
<path d="M506.12 373.056C517.63 370.926 529.82 367.056 540.65 371.516C543.5 372.686 546.12 374.396 549.04 375.376C551.96 376.356 555.16 376.596 558.2 377.286C568.88 379.706 577.54 387.836 583.1 397.286C588.66 406.736 591.54 417.426 594.36 428.006L601.26 453.836C607.26 476.286 613.26 498.926 614.65 522.136C531.116 526.917 447.392 527.395 363.81 523.566C369.25 513.226 374.81 502.256 374.35 490.566C373.89 478.876 367.16 467.346 369.59 455.826C371.14 448.486 376.16 442.436 379.23 435.606C387.98 416.086 381.17 389.816 396.55 374.956C403.47 368.276 413.55 365.746 423.18 366.066C435.46 366.476 448.03 370.306 460.18 372.176C475.74 374.536 490.44 375.936 506.12 373.056Z" fill="#FF6584"/>
<path opacity="0.1" d="M637.019 484.226L636.919 485.656V485.756L636.749 488.056L635.419 506.566L633.809 528.866L633.349 535.146L632.349 548.586V548.756L525.349 549.756L349.759 551.656V552.496H349.619V551.376L350.069 537.016L350.929 508.956L351.669 485.166L351.739 482.796C351.783 481.366 352.118 479.959 352.723 478.662C353.329 477.366 354.192 476.206 355.261 475.254C356.33 474.302 357.582 473.578 358.939 473.127C360.297 472.675 361.733 472.504 363.159 472.626C367.879 473.026 374.009 473.516 381.339 474.036L384.339 474.256C426.669 477.196 504.899 480.996 583.839 476.256C585.499 476.166 587.169 476.066 588.839 475.946C601.079 475.176 613.309 474.186 625.419 472.946C626.95 472.786 628.497 472.963 629.952 473.465C631.407 473.967 632.735 474.783 633.841 475.853C634.947 476.924 635.804 478.224 636.353 479.662C636.903 481.1 637.13 482.641 637.019 484.176V484.226Z" fill="black"/>
<path d="M349.729 552.495V551.655L525.35 549.745L632.35 548.745H632.65V548.575L633.65 535.135L634.079 529.135L635.72 506.525L637.009 488.625V488.185C637.069 487.36 637.032 486.531 636.9 485.715C636.905 485.681 636.905 485.648 636.9 485.615C636.625 483.927 635.938 482.333 634.9 480.975C633.798 479.563 632.356 478.454 630.708 477.755C629.059 477.055 627.26 476.786 625.48 476.975C613.37 478.215 601.14 479.205 588.9 479.975C587.23 480.095 585.56 480.195 583.9 480.285C504.96 484.975 426.73 481.175 384.4 478.285L381.4 478.065C374.07 477.545 367.94 477.065 363.22 476.655C360.623 476.435 358.037 477.186 355.962 478.761C353.886 480.336 352.467 482.625 351.979 485.185C351.879 485.726 351.818 486.274 351.799 486.825L351.12 508.985L350.19 537.055L349.75 551.415V552.535L349.729 552.495Z" fill="#3F3D56"/>
<path opacity="0.1" d="M637.319 491.236L636.089 506.566L634.259 529.416L633.799 535.136L632.799 547.946L632.739 548.586V548.756L632.589 550.236L632.699 548.756H632.409L525.409 549.756L349.759 551.656V551.376L350.249 537.016L351.249 508.956L351.889 490.306C351.92 489.245 352.217 488.209 352.751 487.292C353.286 486.375 354.041 485.606 354.949 485.056C356.081 484.362 357.405 484.047 358.729 484.156C360.829 484.326 363.409 484.526 366.419 484.746C371.309 485.106 377.339 485.526 384.359 485.966C397.359 486.786 413.669 487.666 432.359 488.386C484.359 490.386 554.559 491.056 621.239 485.216C624.239 484.956 627.339 484.666 630.369 484.376C631.568 484.256 632.777 484.486 633.849 485.036C634.153 485.187 634.441 485.368 634.709 485.576C635.579 486.207 636.269 487.055 636.709 488.036C636.811 488.231 636.894 488.435 636.959 488.646C637.259 489.475 637.382 490.357 637.319 491.236V491.236Z" fill="black"/>
<path opacity="0.1" d="M298.089 504.926V508.116C298.09 509.276 297.761 510.412 297.141 511.393C296.522 512.373 295.637 513.158 294.589 513.656L254.489 514.426C253.423 513.937 252.519 513.152 251.886 512.165C251.254 511.177 250.918 510.029 250.919 508.856V505.856L298.089 504.926Z" fill="black"/>
<path d="M298.579 515.535L246.329 516.535V507.865L298.579 506.865V515.535Z" fill="#3F3D56"/>
<path opacity="0.1" d="M298.579 515.535L246.329 516.535V507.865L298.579 506.865V515.535Z" fill="black"/>
<path d="M300.579 515.535L248.329 516.535V507.865L300.579 506.865V515.535Z" fill="#3F3D56"/>
<path opacity="0.1" d="M679.209 506.926V510.116C679.208 511.276 679.537 512.412 680.157 513.393C680.776 514.373 681.661 515.158 682.709 515.656L722.809 516.426C723.875 515.937 724.779 515.152 725.411 514.165C726.044 513.177 726.38 512.029 726.379 510.856V507.856L679.209 506.926Z" fill="black"/>
<path opacity="0.1" d="M678.709 517.535L730.959 518.535V509.865L678.709 508.865V517.535Z" fill="black"/>
<path d="M676.709 517.535L728.959 518.535V509.865L676.709 508.865V517.535Z" fill="#3F3D56"/>
<path d="M454.779 313.845C454.859 320.845 451.619 327.445 448.869 333.915C438.857 357.483 434.52 383.074 436.209 408.625C436.939 419.625 438.789 430.625 436.939 441.525C435.089 452.425 428.509 463.295 417.939 466.425C435.469 476.875 459.199 475.775 475.699 463.765C484.489 457.365 491.039 448.435 497.449 439.655C496.688 455.427 492.121 470.78 484.139 484.405C498.568 483.127 512.566 478.834 525.23 471.802C537.893 464.77 548.938 455.157 557.649 443.585C561.959 437.775 565.709 431.395 567.369 424.355C570.459 411.355 566.149 397.845 562.859 384.855C560.11 373.996 558.049 362.974 556.689 351.855C556.259 348.295 555.909 344.635 556.789 341.155C557.789 337.085 560.459 333.645 562.429 329.935C568.029 319.395 568.159 306.635 565.289 295.055C562.419 283.475 556.799 272.795 551.229 262.245C546.769 253.785 541.929 244.935 533.769 239.965C528.669 236.865 522.769 235.575 516.889 234.325L491.519 228.895C485.969 227.705 480.259 226.515 474.649 227.385C465.179 228.865 458.509 235.705 452.649 242.725C448.059 248.185 436.839 258.435 436.049 265.585C435.329 272.175 441.149 283.215 442.139 290.165C443.439 299.165 444.359 296.165 449.439 301.685C452.649 305.105 454.719 309.055 454.779 313.845Z" fill="#3F3D56"/>
<path d="M729.968 395.74C729.968 389.913 722.668 384.39 711.481 380.965C714.063 369.565 712.915 360.488 707.859 357.583C706.634 356.896 705.247 356.551 703.843 356.583V360.583C704.553 360.56 705.257 360.721 705.887 361.049C708.326 362.449 709.387 367.773 708.559 374.623C708.359 376.308 708.039 378.084 707.645 379.895C703.897 378.991 700.093 378.339 696.259 377.941C693.975 374.79 691.483 371.795 688.8 368.976C694.645 363.543 700.132 360.566 703.862 360.566V356.561C698.931 356.561 692.476 360.075 685.949 366.172C679.422 360.111 672.967 356.633 668.036 356.633V360.633C671.748 360.633 677.252 363.592 683.098 368.989C680.428 371.798 677.954 374.787 675.693 377.936C671.852 378.329 668.043 378.988 664.293 379.908C663.881 378.115 663.576 376.376 663.361 374.708C662.518 367.858 663.561 362.533 665.979 361.116C666.612 360.778 667.324 360.617 668.041 360.65V356.65C666.626 356.618 665.227 356.964 663.989 357.65C658.95 360.55 657.821 369.61 660.421 380.978C649.268 384.421 642.006 389.925 642.006 395.735C642.006 401.563 649.306 407.085 660.493 410.51C657.911 421.91 659.059 430.987 664.115 433.892C665.346 434.58 666.739 434.925 668.149 434.892C673.08 434.892 679.535 431.378 686.062 425.281C692.589 431.342 699.044 434.82 703.975 434.82C705.39 434.851 706.788 434.506 708.027 433.82C713.066 430.92 714.195 421.86 711.595 410.492C722.706 407.072 729.968 401.549 729.968 395.74ZM706.622 383.78C705.959 386.093 705.134 388.48 704.201 390.863C703.466 389.429 702.695 387.994 701.852 386.563C701.027 385.129 700.152 383.73 699.27 382.363C701.817 382.74 704.274 383.206 706.623 383.78H706.622ZM698.41 402.88C697.01 405.301 695.577 407.596 694.089 409.73C691.417 409.963 688.71 410.089 685.989 410.089C683.281 410.089 680.574 409.963 677.92 409.748C676.432 407.614 674.986 405.343 673.581 402.934C672.218 400.585 670.975 398.206 669.851 395.798C670.963 393.398 672.218 390.993 673.563 388.644C674.963 386.223 676.396 383.928 677.884 381.794C680.556 381.561 683.263 381.435 685.984 381.435C688.692 381.435 691.399 381.561 694.053 381.776C695.541 383.909 696.987 386.18 698.392 388.59C699.755 390.938 700.998 393.317 702.122 395.726C700.992 398.125 699.755 400.527 698.41 402.876V402.88ZM704.202 400.549C705.17 402.949 705.995 405.354 706.676 407.685C704.327 408.259 701.853 408.743 699.289 409.119C700.168 407.738 701.046 406.319 701.871 404.869C702.7 403.432 703.467 401.98 704.2 400.545L704.202 400.549ZM686.02 419.677C684.261 417.851 682.597 415.935 681.035 413.939C682.649 414.011 684.298 414.065 685.966 414.065C687.651 414.065 689.319 414.029 690.951 413.939C689.412 415.939 687.766 417.854 686.02 419.677ZM672.68 409.116C670.134 408.739 667.68 408.273 665.328 407.699C665.991 405.386 666.816 402.999 667.749 400.616C668.484 402.05 669.255 403.485 670.098 404.916C670.941 406.347 671.8 407.753 672.68 409.116ZM685.93 371.802C687.689 373.627 689.353 375.543 690.915 377.54C689.301 377.468 687.652 377.414 685.984 377.414C684.298 377.414 682.631 377.45 680.999 377.54C682.538 375.539 684.184 373.624 685.93 371.802V371.802ZM672.662 382.361C671.783 383.742 670.905 385.161 670.08 386.611C669.255 388.045 668.48 389.48 667.749 390.911C666.781 388.511 665.956 386.106 665.275 383.775C667.623 383.224 670.1 382.74 672.662 382.361ZM656.435 404.81C650.087 402.102 645.981 398.552 645.981 395.737C645.981 392.922 650.087 389.354 656.435 386.664C657.977 386.001 659.663 385.409 661.402 384.853C662.499 388.579 663.846 392.228 665.436 395.773C663.863 399.3 662.533 402.93 661.455 406.639C659.68 406.086 657.994 405.476 656.434 404.813L656.435 404.81ZM666.082 430.433C663.643 429.033 662.582 423.709 663.41 416.859C663.61 415.173 663.93 413.398 664.324 411.587C668.072 412.49 671.875 413.142 675.71 413.541C677.994 416.691 680.486 419.686 683.169 422.506C677.324 427.939 671.837 430.916 668.107 430.916C667.402 430.925 666.706 430.76 666.081 430.436L666.082 430.433ZM708.614 416.77C709.457 423.62 708.414 428.945 705.996 430.362C705.363 430.699 704.651 430.86 703.934 430.828C700.222 430.828 694.718 427.869 688.872 422.472C691.542 419.662 694.016 416.673 696.277 413.525C700.118 413.131 703.927 412.472 707.677 411.553C708.081 413.275 708.393 415.017 708.613 416.773L708.614 416.77ZM715.514 404.81C713.972 405.473 712.286 406.065 710.547 406.621C709.45 402.894 708.102 399.245 706.513 395.701C708.085 392.173 709.416 388.543 710.494 384.835C712.269 385.391 713.955 386 715.533 386.664C721.881 389.372 725.987 392.922 725.987 395.737C725.97 398.555 721.864 402.123 715.516 404.813L715.514 404.81Z" fill="#61DAFB"/>
<path d="M685.965 403.933C690.491 403.933 694.159 400.264 694.159 395.739C694.159 391.214 690.491 387.545 685.965 387.545C681.44 387.545 677.771 391.214 677.771 395.739C677.771 400.264 681.44 403.933 685.965 403.933Z" fill="#61DAFB"/>
<path d="M229 431.664C229.194 434.068 230.035 436.485 232.231 439.728C234.841 443.579 239.323 445.692 242.594 442.3C244.799 440.009 268.668 397.962 280.17 382.025C280.485 381.569 280.905 381.197 281.394 380.94C281.883 380.683 282.426 380.549 282.977 380.549C283.529 380.549 284.072 380.683 284.561 380.94C285.05 381.197 285.47 381.569 285.786 382.025C297.288 397.962 321.155 440.009 323.36 442.3C326.632 445.692 331.114 443.579 333.724 439.728C336.289 435.941 337 433.288 337 430.449C337 428.517 299.83 358.799 296.086 352.994C292.486 347.415 291.388 346.2 285.299 346H280.656C274.567 346.2 273.469 347.411 269.865 352.994C266.202 358.676 230.485 425.65 229 430.24V431.664Z" fill="white"/>
</g>
<defs>
<clipPath id="clip0_404_716">
<rect width="1041.28" height="554.141" fill="white"/>
</clipPath>
</defs>
</svg>
